<svg xmlns:xlink="http://www.w3.org/1999/xlink" xmlns="http://www.w3.org/2000/svg" width="24" height="24" fill="none" viewBox="0 0 24 24"><path fill-rule="evenodd" d="M18 7.5a.5.5 0 00-.5-.5h-11a.5.5 0 00-.5.5v1a.5.5 0 00.5.5h11a.5.5 0 00.5-.5v-1zm-12 4a.5.5 0 01.5-.5h11a.5.5 0 01.5.5v1a.5.5 0 01-.5.5h-11a.5.5 0 01-.5-.5v-1zm0 4a.5.5 0 01.5-.5h11a.5.5 0 01.5.5v1a.5.5 0 01-.5.5h-11a.5.5 0 01-.5-.5v-1z" clip-rule="evenodd" class="AddDependency___StyledPath-ycg19x-12 iXFrlG" fill="#757575"></path></svg>